<svg width="30" height="30" viewBox="0 0 30 30" fill="none" xmlns="http://www.w3.org/2000/svg">
<path d="M23.8333 10.2121C23.8333 8.03408 22.9554 5.94531 21.3925 4.40525C19.8298 2.8652 17.7101 2 15.5 2C13.2899 2 11.1702 2.8652 9.60744 4.40525C8.04464 5.94531 7.16667 8.03408 7.16667 10.2121C7.16667 19.7928 3 22.5301 3 22.5301H28C28 22.5301 23.8333 19.7928 23.8333 10.2121Z" fill="#165DFF" fill-opacity="0.1" stroke="black" stroke-width="1.4" stroke-linecap="round" stroke-linejoin="round"/>
<path d="M17 27C16.7968 27.3042 16.505 27.5566 16.154 27.7321C15.803 27.9076 15.4051 28 15 28C14.5949 28 14.197 27.9076 13.846 27.7321C13.495 27.5566 13.2033 27.3042 13 27" stroke="black" stroke-width="1.4" stroke-linecap="round" stroke-linejoin="round"/>
</svg>
